HIERARCHY
ROOT Hips
{
 OFFSET 0.000000 0.000000 0.000000
 CHANNELS 6 Xposition Yposition Zposition Yrotation Xrotation Zrotation
 JOINT Chest
 {
  OFFSET 0.000000 9.581000 -0.001100
  CHANNELS 3 Yrotation Xrotation Zrotation
  JOINT Chest2
  {
   OFFSET 0.000000 9.561100 0.002200
   CHANNELS 3 Yrotation Xrotation Zrotation
   JOINT Chest3
   {
    OFFSET 0.000000 9.521100 0.000000
    CHANNELS 3 Yrotation Xrotation Zrotation
    JOINT Chest4
    {
     OFFSET 0.000000 9.511400 0.000000
     CHANNELS 3 Yrotation Xrotation Zrotation
     JOINT Neck
     {
      OFFSET 0.000000 14.375100 0.000000
      CHANNELS 3 Yrotation Xrotation Zrotation
      JOINT Head
      {
       OFFSET 0.000000 8.901200 0.004600
       CHANNELS 3 Yrotation Xrotation Zrotation
       End Site
       {
        OFFSET 0.000000 16.962200 0.002400
       }
      }
     }
     JOINT RightCollar
     {
      OFFSET -2.920100 9.518800 0.000000
      CHANNELS 3 Yrotation Xrotation Zrotation
      JOINT RightShoulder
      {
       OFFSET -13.664500 0.000000 0.000000
       CHANNELS 3 Yrotation Xrotation Zrotation
       JOINT RightElbow
       {
        OFFSET 0.000000 -29.999200 0.000000
        CHANNELS 3 Yrotation Xrotation Zrotation
        JOINT RightWrist
        {
         OFFSET 0.000000 -24.253600 0.000000
         CHANNELS 3 Yrotation Xrotation Zrotation
         End Site
         {
          OFFSET 0.000000 -17.918900 0.000000
         }
        }
       }
      }
     }
     JOINT LeftCollar
     {
      OFFSET 2.920100 9.518800 0.000000
      CHANNELS 3 Yrotation Xrotation Zrotation
      JOINT LeftShoulder
      {
       OFFSET 13.664500 0.000000 0.000000
       CHANNELS 3 Yrotation Xrotation Zrotation
       JOINT LeftElbow
       {
        OFFSET 0.000000 -29.999200 0.000000
        CHANNELS 3 Yrotation Xrotation Zrotation
        JOINT LeftWrist
        {
         OFFSET 0.000000 -24.253600 0.000000
         CHANNELS 3 Yrotation Xrotation Zrotation
         End Site
         {
          OFFSET 0.000000 -17.918900 0.000000
         }
        }
       }
      }
     }
    }
   }
  }
 }
 JOINT RightHip
 {
  OFFSET -7.797300 0.005300 0.000500
  CHANNELS 3 Yrotation Xrotation Zrotation
  JOINT RightKnee
  {
   OFFSET 0.000000 -40.663400 -0.000500
   CHANNELS 3 Yrotation Xrotation Zrotation
   JOINT RightAnkle
   {
    OFFSET 0.000000 -39.523700 -0.000900
    CHANNELS 3 Yrotation Xrotation Zrotation
    JOINT RightToe
    {
     OFFSET 0.000000 -6.418000 14.485300
     CHANNELS 3 Yrotation Xrotation Zrotation
     End Site
     {
      OFFSET 0.000000 -1.465200 6.326400
     }
    }
   }
  }
 }
 JOINT LeftHip
 {
  OFFSET 7.797300 0.005300 0.000500
  CHANNELS 3 Yrotation Xrotation Zrotation
  JOINT LeftKnee
  {
   OFFSET 0.000000 -40.663400 -0.000500
   CHANNELS 3 Yrotation Xrotation Zrotation
   JOINT LeftAnkle
   {
    OFFSET 0.000000 -39.523700 -0.000900
    CHANNELS 3 Yrotation Xrotation Zrotation
    JOINT LeftToe
    {
     OFFSET 0.000000 -6.418000 14.485300
     CHANNELS 3 Yrotation Xrotation Zrotation
     End Site
     {
      OFFSET 0.000000 -1.465200 6.326400
     }
    }
   }
  }
 }
}
MOTION
Frames: 15
Frame Time: 0.008333
-15.359721 126.901516 20.070194 -171.825372 -47.383354 -3.718036 -1.918890 26.769382 0.772929 -0.346710 4.565321 0.198127 -0.539042 7.263796 0.266496 -1.570372 21.891169 0.685377 7.731771 16.621372 5.444579 7.157628 -7.933764 4.093943 4.195749 4.315728 1.891111 5.204605 -15.871579 -14.553581 -71.496369 -51.185956 128.534520 -4.802868 8.841195 -8.243051 -9.601292 0.126768 -1.861767 -7.280473 -12.224521 14.376913 63.294184 -56.459883 -110.036702 1.400377 -13.494293 14.617626 -4.617535 -24.820624 -0.703469 -2.713792 77.183267 -1.042203 10.028398 -8.907020 1.086771 0.001186 -0.002324 0.000525 7.429375 3.116665 3.577486 130.029564 65.704818 151.198313 3.125017 13.884815 5.950432 -0.002711 0.001276 -0.001201
-15.358538 126.901454 20.070730 -171.822787 -47.382088 -3.722722 -1.920163 26.765749 0.780669 -0.350552 4.554683 0.214824 -0.540733 7.257189 0.271678 -1.572877 21.867731 0.730822 7.683424 16.879999 5.408869 7.114386 -7.677797 4.096590 4.164616 4.325922 1.845113 5.257993 -15.856415 -14.546368 -71.434614 -51.142857 128.468918 -4.828993 8.788108 -8.398880 -9.631481 0.061471 -1.889136 -7.457130 -12.228602 14.501956 63.142140 -56.397184 -109.912938 1.479105 -13.618469 14.840368 -4.623693 -24.808144 -0.695393 -2.738646 77.190290 -1.066217 10.006804 -8.954728 1.074293 0.000522 -0.002393 0.000231 7.420183 3.135043 3.566218 130.053931 65.699100 151.223765 3.136656 13.853740 5.928920 -0.000385 0.007985 -0.000171
-15.357839 126.901716 20.071217 -171.829308 -47.386055 -3.717988 -1.922524 26.758772 0.797151 -0.348068 4.558944 0.205338 -0.543417 7.246068 0.289141 -1.572452 21.859308 0.754130 7.635344 17.083017 5.386590 7.067827 -7.464372 4.093113 4.125448 4.329752 1.817373 5.297436 -15.837806 -14.554749 -71.424634 -51.146105 128.451871 -4.876347 8.722428 -8.521655 -9.653847 0.014587 -1.898976 -7.648209 -12.257057 14.633603 63.018264 -56.333929 -109.813940 1.550311 -13.746519 15.055987 -4.624646 -24.790856 -0.697340 -2.756403 77.192841 -1.085724 10.010359 -8.998346 1.070608 -0.000205 -0.000483 -0.000091 7.417318 3.154782 3.551913 130.041844 65.695717 151.206797 3.145494 13.835606 5.926285 -0.002068 0.006429 -0.000916
-15.356954 126.901853 20.072040 -171.835915 -47.390152 -3.713797 -1.931670 26.742753 0.825005 -0.339926 4.572814 0.180728 -0.550365 7.222375 0.330094 -1.582671 21.869884 0.740594 7.605813 17.182424 5.358038 6.991146 -7.240398 4.104999 4.094598 4.335386 1.800484 5.329720 -15.822699 -14.574226 -71.476410 -51.134429 128.506169 -4.908062 8.695396 -8.640634 -9.665718 -0.027528 -1.896934 -7.839319 -12.291891 14.758014 62.918133 -56.271702 -109.737552 1.604058 -13.876498 15.264551 -4.622171 -24.778834 -0.699773 -2.823969 77.201275 -1.156090 10.034591 -9.040510 1.077057 0.000407 -0.001538 0.000181 7.415234 3.172173 3.536141 130.013929 65.689820 151.170256 3.157209 13.820672 5.937705 -0.007162 0.003105 -0.003173
-15.356057 126.901806 20.073138 -171.844569 -47.394201 -3.707102 -1.935799 26.736380 0.839153 -0.340491 4.570819 0.182454 -0.553214 7.220657 0.334966 -1.587955 21.866684 0.752411 7.545220 17.334592 5.337885 6.948936 -7.144620 4.077169 4.053942 4.347564 1.795355 5.369696 -15.815858 -14.591914 -71.550752 -51.141061 128.574908 -4.927005 8.691627 -8.722087 -9.668639 -0.053159 -1.907792 -8.022930 -12.336461 14.887110 62.841235 -56.215636 -109.691980 1.638943 -14.003371 15.468498 -4.624960 -24.758670 -0.707562 -2.984834 77.202627 -1.321163 10.095115 -9.112839 1.093639 -0.000233 -0.002739 -0.000103 7.415296 3.188254 3.515145 130.013140 65.680228 151.167726 3.176121 13.795713 5.938791 -0.007373 0.004326 -0.003267
-15.354183 126.901738 20.074251 -171.845902 -47.398286 -3.710301 -1.942186 26.731429 0.859884 -0.341636 4.568298 0.183626 -0.555327 7.222563 0.332458 -1.592862 21.862618 0.768834 7.479186 17.438190 5.313373 6.907568 -7.082354 4.046215 4.048263 4.363443 1.761352 5.316259 -15.802097 -14.538466 -71.735310 -51.189616 128.771361 -4.979631 8.745647 -8.771161 -9.666952 -0.057719 -1.938835 -8.191444 -12.391649 15.030431 62.789785 -56.170746 -109.685186 1.659724 -14.120494 15.667328 -4.631561 -24.745204 -0.708117 -3.063180 77.206799 -1.400405 10.126195 -9.154033 1.098522 -0.000304 -0.002938 -0.000135 7.413899 3.197548 3.506755 130.032630 65.678534 151.193194 3.193290 13.779867 5.930642 -0.001191 0.003798 -0.000528
-15.352478 126.901829 20.075240 -171.851853 -47.404190 -3.707762 -1.944163 26.731045 0.878766 -0.347792 4.563531 0.185812 -0.550147 7.230182 0.315460 -1.592328 21.858315 0.796107 7.423716 17.479800 5.284152 6.851341 -7.039984 4.025736 4.023687 4.385587 1.747101 5.300991 -15.792645 -14.522325 -71.891926 -51.223717 128.927311 -4.994292 8.770777 -8.782965 -9.669262 -0.088632 -1.935314 -8.323503 -12.420359 15.128706 62.758097 -56.137199 -109.710575 1.671589 -14.228031 15.855565 -4.636074 -24.731154 -0.712605 -3.132199 77.211223 -1.467845 10.154675 -9.193600 1.098849 -0.000171 -0.002993 -0.000076 7.415732 3.208096 3.494772 130.028680 65.680391 151.195051 3.213800 13.769683 5.952900 0.008590 -0.001201 0.003806
-15.352519 126.901952 20.076239 -171.858597 -47.411101 -3.692871 -1.949798 26.734431 0.881948 -0.348383 4.559360 0.192449 -0.552403 7.229591 0.317604 -1.594990 21.864984 0.797214 7.368333 17.488522 5.256502 6.842960 -7.023420 4.010102 4.000294 4.409139 1.740381 5.289665 -15.791612 -14.515504 -72.014831 -51.248300 129.044270 -4.995218 8.789312 -8.772673 -9.669865 -0.125649 -1.888690 -8.425732 -12.444115 15.176491 62.738250 -56.111863 -109.756252 1.676917 -14.326145 16.027980 -4.636692 -24.718110 -0.730121 -3.186555 77.217875 -1.519311 10.171361 -9.235691 1.095921 0.000229 -0.002966 0.000102 7.417821 3.222446 3.468310 130.014775 65.675925 151.176028 3.242913 13.756334 5.973101 0.008657 0.000707 0.003836
-15.352410 126.902317 20.076910 -171.877359 -47.420267 -3.669166 -1.944699 26.740819 0.882919 -0.351371 4.560159 0.196507 -0.552538 7.232653 0.336792 -1.600712 21.866207 0.781983 7.313630 17.472639 5.231192 6.762656 -7.043950 3.992082 3.981009 4.436407 1.742147 5.297432 -15.811723 -14.533955 -72.126154 -51.244735 129.124136 -4.970923 8.792160 -8.750215 -9.674456 -0.136928 -1.880012 -8.511414 -12.480151 15.256865 62.719604 -56.092962 -109.809925 1.681694 -14.411852 16.181094 -4.631231 -24.703602 -0.745430 -3.231533 77.223361 -1.563715 10.184213 -9.278399 1.092638 0.000723 -0.002610 0.000320 7.427792 3.235429 3.433192 129.988273 65.664468 151.143723 3.274965 13.749277 5.991537 0.003324 0.001229 0.001473
-15.350997 126.902587 20.077457 -171.884129 -47.427318 -3.661358 -1.940950 26.746633 0.888935 -0.355328 4.560254 0.202001 -0.550708 7.234632 0.329617 -1.594300 21.871298 0.793060 7.278660 17.456732 5.212783 6.664936 -7.112289 3.978718 3.952620 4.461762 1.744550 5.271937 -15.800496 -14.510736 -72.226174 -51.267034 129.230908 -4.931741 8.781491 -8.725637 -9.679194 -0.144046 -1.870917 -8.579074 -12.510859 15.325933 62.693842 -56.077328 -109.861419 1.693194 -14.484832 16.309755 -4.638207 -24.691205 -0.751503 -3.276230 77.227717 -1.610584 10.204475 -9.311580 1.089364 0.000919 -0.001942 0.000407 7.433249 3.240920 3.424417 129.982122 65.662011 151.134076 3.296380 13.743945 6.011133 0.004608 0.002827 0.002042
-15.349843 126.903058 20.077667 -171.894899 -47.435671 -3.648901 -1.935049 26.754175 0.893382 -0.351612 4.563187 0.214897 -0.556020 7.233489 0.314574 -1.588316 21.875442 0.799781 7.245709 17.437547 5.199297 6.593544 -7.185747 3.967759 3.921889 4.522725 1.760271 5.226007 -15.772670 -14.458227 -72.336833 -51.326406 129.378499 -4.914749 8.782490 -8.710958 -9.684219 -0.147418 -1.862925 -8.632258 -12.533424 15.382499 62.662666 -56.061303 -109.906835 1.669444 -14.559901 16.442044 -4.640497 -24.683027 -0.759565 -3.339243 77.236377 -1.676168 10.231241 -9.329722 1.084355 0.000518 -0.000038 0.000229 7.442075 3.246375 3.414367 129.979744 65.665611 151.128079 3.319447 13.748919 6.027058 0.003825 0.003460 0.001695
-15.349764 126.903430 20.077840 -171.910025 -47.442983 -3.626682 -1.932370 26.759888 0.889267 -0.350907 4.563777 0.211509 -0.550551 7.237899 0.318994 -1.591615 21.873952 0.797627 7.199526 17.397980 5.185308 6.542522 -7.246166 3.957709 3.907385 4.549837 1.763535 5.188791 -15.723748 -14.409622 -72.421693 -51.365655 129.486265 -4.919978 8.770681 -8.717734 -9.691233 -0.144641 -1.857060 -8.667328 -12.547032 15.424365 62.668308 -56.035940 -109.936014 1.648888 -14.603162 16.534660 -4.637126 -24.672985 -0.774205 -3.425849 77.242936 -1.763852 10.251770 -9.369207 1.083132 -0.000521 -0.000247 -0.000231 7.454698 3.245369 3.400026 129.956159 65.664732 151.093647 3.331203 13.762550 6.054105 -0.004596 0.000849 -0.002036
-15.347692 126.902590 20.078811 -171.909531 -47.438130 -3.627022 -1.937454 26.754724 0.892029 -0.347929 4.563879 0.208692 -0.550993 7.238809 0.325092 -1.592567 21.873789 0.791464 7.157810 17.352918 5.174245 6.498728 -7.305195 3.950672 3.898609 4.576712 1.768806 5.158976 -15.678449 -14.372442 -72.473576 -51.371182 129.548538 -4.920987 8.760097 -8.733577 -9.699091 -0.136023 -1.852574 -8.685118 -12.552358 15.451187 62.591508 -56.027080 -109.947371 1.642007 -14.686278 16.709353 -4.652260 -24.673175 -0.778530 -3.434347 77.245522 -1.780637 10.292856 -9.404454 1.082094 -0.000481 -0.000733 -0.000213 7.463684 3.216610 3.398433 129.972357 65.651324 151.118246 3.345502 13.770373 6.066265 -0.000219 -0.001841 -0.000097
-15.345668 126.902252 20.079117 -171.911953 -47.436356 -3.625415 -1.938168 26.753008 0.892898 -0.349432 4.564038 0.211594 -0.551174 7.239371 0.324565 -1.593409 21.874474 0.789813 7.116303 17.304263 5.160586 6.466047 -7.366689 3.945109 3.893502 4.597989 1.769405 5.132108 -15.623081 -14.332396 -72.505169 -51.360947 129.582279 -4.915528 8.753898 -8.761622 -9.700876 -0.133009 -1.854465 -8.693497 -12.549712 15.464129 62.487627 -56.006070 -109.920637 1.638521 -14.769181 16.850742 -4.665931 -24.670645 -0.778847 -3.453329 77.250070 -1.806026 10.311277 -9.440856 1.081413 -0.001360 -0.001270 -0.000603 7.469680 3.198938 3.402625 129.986963 65.646092 151.133868 3.360902 13.775943 6.075335 0.003289 -0.001240 0.001457
-15.344518 126.901878 20.079319 -171.925299 -47.433665 -3.610608 -1.934439 26.749961 0.887108 -0.354381 4.565820 0.212937 -0.548274 7.238463 0.323308 -1.596348 21.876507 0.785752 7.060863 17.210148 5.144875 6.456397 -7.389068 3.945671 3.892698 4.611700 1.768900 5.108835 -15.563347 -14.288382 -72.519720 -51.361398 129.603964 -4.925270 8.740417 -8.817643 -9.698292 -0.130639 -1.853845 -8.693657 -12.552058 15.467696 62.378075 -55.965786 -109.864834 1.638956 -14.833977 16.960402 -4.668481 -24.668159 -0.789914 -3.508550 77.254016 -1.867839 10.359474 -9.493118 1.097128 -0.000046 -0.002957 -0.000020 7.480923 3.179728 3.404985 129.995614 65.643631 151.134874 3.370857 13.786468 6.108375 0.004245 -0.003841 0.001881
